<?xml version="1.0" encoding="utf-8"?>
<!-- Generator: Adobe Illustrator 24.1.1, SVG Export Plug-In . SVG Version: 6.00 Build 0)  -->
<svg version="1.1" id="Layer_1" xmlns="http://www.w3.org/2000/svg" xmlns:xlink="http://www.w3.org/1999/xlink" x="0px" y="0px"
	 viewBox="0 0 1920 313.7" style="enable-background:new 0 0 1920 313.7;" xml:space="preserve">
<g>
	<path d="M14.4,13.1c47.1,0,93.2,0,139.4,0c42.1,0.1,84.2,0.2,126.3,0.4c22.8,0.1,44.4,3.9,61.4,20.5c31.3,30.7,32.2,80.4,2.3,112.9
		c-1.8,2-3.7,4-6.3,6.8c25.1,17.9,35.5,42.3,33.4,72.3c-2.8,38.5-31.5,68.4-70.3,70.5c-29.5,1.6-59.2,0.6-88.8,0.8
		c-44.4,0.3-88.8,1-133.2,0.8c-22.3-0.1-43.9-4.2-56.1-25.9c-3.9-7-7.7-15.3-7.8-23.1c-0.8-41.6-0.4-83.3-0.4-126.6
		c5.2,0,10.2,0,15.1,0c83.3,0,166.5,0.1,249.8,0.1c15.5,0,21.2-5.9,20.9-21.7c-0.2-14.9-6-21.1-20.7-21
		C221.6,79.9,163.8,80.7,106,80c-16.9-0.2-33.9-3.5-50.5-7.2C32.9,67.8,11.9,43.2,14.4,13.1z M80.2,230.2c3.3,0.5,5.5,1.1,7.7,1.1
		c66.1,0.1,132.2,0.1,198.3,0c13.5,0,18.8-6.5,18.8-21.3c0-15.5-5.3-21.4-19.8-21.4c-64.7-0.1-129.5-0.1-194.2,0
		c-3.5,0-7,0.7-10.9,1.2C80.2,203.3,80.2,216,80.2,230.2z"/>
	<path d="M458.6,107c0,26.6,0,50.2,0,73.8c0,19.7,0.4,39.5-0.1,59.2c-1,39.7-24.3,59.6-65.5,56c0-80.5-0.5-161.1,0.4-241.7
		c0.2-18.7,17.5-32.6,40-38.3c15.9-4,27.3-0.7,38.6,12.1c49.9,56.5,100.9,112.1,151.5,168c1.2,1.3,2.4,2.6,5.1,5.3
		c0.4-5.4,0.9-9.2,0.9-13c0.1-37.6,0.1-75.2,0.1-112.8c0-43.3,19.7-62,65.7-61.1c0.3,3.8,0.8,7.8,0.8,11.7c0,71.1,0.1,142.2,0,213.3
		c-0.1,36.8-17,54.9-54.2,56.9c-6.2,0.3-14.5-2.7-18.6-7.2c-53-58-105.5-116.6-158.1-175.1C463.7,112.5,462.2,111,458.6,107z"/>
	<path d="M718.4,13.5c28.8,0,54.1-0.3,79.4,0.3c4.2,0.1,9.4,3.2,12.3,6.6c22.8,26.5,45.1,53.3,68.5,81.3
		c20.8-24.9,41.8-49.1,61.6-74.3c8.2-10.4,16.6-15,30.2-14.2c21.6,1.3,43.3,0.3,68.1,0.3c-39.7,47.8-77.8,93.7-116.5,140.2
		c39.7,47.6,78.7,94.5,119.6,143.6c-29,0-55.9,0.4-82.8-0.5c-4.3-0.1-9-5.8-12.4-9.8C894.2,224.6,842.2,162,790.1,99.4
		C767,71.5,743.7,43.7,718.4,13.5z"/>
	<path d="M715.5,297.3c37.4-45.4,72.9-88.4,109.6-133c15.4,16.6,30.1,32.5,45.1,48.7c-21.8,27-43.1,53.4-64.5,79.7
		c-1.8,2.2-5.2,4.4-7.9,4.4C771.2,297.4,744.7,297.3,715.5,297.3z"/>
	<path d="M1426.2,263.2c5.2-14.6,10.2-29.2,15.6-43.7c1.2-3.1,3.9-5.6,5.9-8.3c2.8,2.6,6.8,4.8,8,8c5.5,15,10.2,30.2,16.4,49
		c7.1-30.6,13.2-57.6,20-84.4c0.9-3.7,5.3-6.5,8.1-9.7c1.2,3.8,4.1,8,3.4,11.4c-7.3,34.5-15.1,68.9-23,103.2
		c-0.8,3.3-2.9,6.3-5.6,12c-16.6-18.5-15.3-42.1-27-61.7c-5.6,16.5-10.6,32-16.3,47.2c-1.6,4.3-5.3,7.9-8.1,11.7
		c-2.7-4.3-6.8-8.3-7.9-13c-7.8-32.5-15.2-65.1-22.1-97.8c-0.8-4,1.8-8.7,2.9-13.1c3.2,3.5,8.4,6.6,9.4,10.6
		c6.4,26.2,11.9,52.6,17.7,78.9C1424.3,263.4,1425.3,263.3,1426.2,263.2z"/>
	<path d="M1116.7,208.9c0,23.7,0,47.4,0,71.1c0,3.2,0.8,6.7-0.2,9.6c-1,3-3.7,5.5-5.7,8.3c-2.2-2.9-6.3-5.7-6.3-8.6
		c-0.4-35.7-0.4-71.5-0.1-107.2c0-2.6,2.7-5.2,4.1-7.8c3.1,2.1,7.4,3.5,9.1,6.4c14.2,24.6,27.9,49.5,41.8,74.2
		c1.6,2.9,3.5,5.7,7.5,12.2c0-27.8,0-51.3,0-74.9c0-3.7-0.7-7.6,0.3-10.9c0.9-2.9,3.8-5.1,5.8-7.6c2,2.6,5.6,5.1,5.7,7.7
		c0.6,15.1,0.3,30.2,0.3,45.3c0,20.2,0.2,40.3-0.2,60.5c-0.1,3.5-2.8,7-4.2,10.4c-3.1-2.3-7.3-3.9-9-6.9
		c-15.7-27.4-30.9-55-46.2-82.5C1118.4,208.5,1117.5,208.7,1116.7,208.9z"/>
	<path d="M1683.2,246.6c6.6,13.1,13.2,25.5,19,38.4c1.4,3.2-0.2,7.8-0.4,11.7c-3.3-1.9-7.9-3-9.8-5.9c-4.8-7.3-8.3-15.3-12.4-23
		c-11.1-21.1-11.1-21.1-37.5-18.1c0,12.5,0.4,25.2-0.3,37.9c-0.2,3.5-3.7,6.9-5.7,10.3c-2-3.5-5.7-7.1-5.7-10.6
		c-0.4-34.4-0.1-68.8-0.4-103.3c-0.1-7.6,2.7-10.9,10.5-10.5c8.3,0.4,16.7,0,25,0.1c19,0.3,32.8,9.9,38,26.4
		c5.3,16.8-0.1,31.7-15.7,43.1C1686.5,244.1,1685.1,245.2,1683.2,246.6z M1642.8,235.9c17.4-0.7,36.3,5.8,45.9-12.6
		c3.6-7,3.1-19.9-1.2-26.5c-10.6-16.5-28.5-9.2-44.7-10.3C1642.8,203.4,1642.8,218.8,1642.8,235.9z"/>
	<path d="M1605.2,236.8c0,8.2,0.4,16.5-0.1,24.7c-1.2,20.7-17.6,36.5-37.7,36.6c-20,0.1-36.6-15.6-37.5-36.6
		c-0.7-16.9-0.7-33.9-0.1-50.8c0.8-21.8,17.5-37.5,38.3-37.1c20.2,0.4,36,16,37,37.1C1605.6,219.4,1605.3,228.1,1605.2,236.8
		C1605.2,236.8,1605.2,236.8,1605.2,236.8z M1592.3,237.2c0-9.1,0.3-18.3-0.1-27.4c-0.5-13.5-10.3-22.9-23.8-23.5
		c-13.2-0.5-25.3,8.5-25.9,21.5c-0.9,18.7-0.9,37.5,0,56.2c0.6,12.4,13.4,22.1,26,21.6c12.9-0.5,23.2-10.6,23.7-23.7
		C1592.5,253.7,1592.2,245.5,1592.3,237.2z"/>
	<path d="M1217.5,186.3c0,12.8,0,24,0,36.8c9.6,0,18.8-0.5,27.8,0.3c3,0.3,5.8,4.1,8.6,6.2c-2.9,2.1-5.7,5.7-8.8,6
		c-8.6,0.8-17.4,0.3-27.2,0.3c0,16.6,0,32.3,0,49.7c12.8,0,25.6-0.4,38.4,0.3c3.6,0.2,7,3.9,10.5,5.9c-3.6,2.1-7.1,5.9-10.7,6.1
		c-13.8,0.7-27.7,0.2-41.5,0.3c-7.9,0.1-10.4-3.7-10.4-11.1c0.2-34.3,0.2-68.7,0-103c0-7.6,2.8-10.9,10.6-10.7
		c13.8,0.3,27.7-0.3,41.5,0.4c3.6,0.2,7,3.9,10.5,6c-3.4,2.2-6.7,6-10.2,6.2C1243.8,186.8,1231,186.3,1217.5,186.3z"/>
	<path d="M1742.3,232.5c17.7-19.2,32.7-35.9,48.4-51.9c2.9-3,8.7-3.3,13.2-4.8c-1.4,4.2-1.7,9.3-4.3,12.5
		c-10,11.9-20.7,23.2-31.5,35.1c11.4,20.6,22.8,40.4,33.5,60.6c1.8,3.4,0.4,8.4,0.4,12.7c-3.6-2.3-8.5-3.8-10.5-7.1
		c-10.9-17.9-21-36.3-31.8-55c-12.2,8.2-19.9,17.1-17.5,32c0.9,5.8,0.9,12-0.1,17.8c-0.7,4.7-3.5,9-5.3,13.5
		c-2.1-4.8-5.5-9.3-6.2-14.3c-1-7.6-0.3-15.5-0.3-23.3c0-25.2-0.3-50.4,0.3-75.6c0.1-3.7,4.2-7.3,6.5-11c1.7,3.7,4.8,7.3,5,11
		C1742.6,199.3,1742.3,213.9,1742.3,232.5z"/>
	<path d="M1866.5,172.6c8.5,2,17.2,3.4,25.3,6.3c3,1.1,4.6,5.8,6.8,8.9c-3.6,0.9-7.2,2.9-10.6,2.6c-8.2-0.8-16.3-3.4-24.5-3.8
		c-10.3-0.6-18.2,4.3-20.4,14.8c-2.1,9.8,2.7,16.4,11.9,20.7c10.9,5,21.3,10.9,32,16.3c14.9,7.6,21.8,21.7,17.8,36.3
		c-3.9,14.4-17.9,25.3-33.5,23c-12-1.8-23.6-6.8-35-11.5c-2.5-1-3.2-6.4-4.7-9.8c3.6-0.4,7.6-1.8,10.8-0.9
		c10.1,2.9,19.6,7.9,29.8,9.8c9.5,1.7,17.3-3.2,19.8-13.2c2.4-9.4-0.2-17.1-9.6-21.8c-10.7-5.3-21.4-10.7-32-16.3
		c-16.4-8.6-23-21.6-19-37.1C1835.2,182.3,1848.9,173.1,1866.5,172.6z"/>
	<path d="M1322.5,186.3c-8.3,0-15.6,0.5-22.8-0.3c-2.7-0.3-4.9-3.9-7.4-5.9c2.4-2.1,4.7-6,7.1-6.1c19.9-0.5,39.8-0.5,59.6-0.1
		c2.7,0.1,5.3,3.8,7.9,5.8c-2.9,2.2-5.5,5.9-8.7,6.3c-6.7,1-13.6,0.3-22.3,0.3c0,24.5,0,47.7,0,70.9c0,10.1,0.6,20.2-0.3,30.2
		c-0.3,3.7-4,7-6.2,10.5c-2.1-3.5-5.8-7-5.9-10.5c-0.5-31.2-0.3-62.4-0.3-93.6C1323.3,192.1,1322.9,190.2,1322.5,186.3z"/>
</g>
</svg>
