<?xml version="1.0" encoding="UTF-8" standalone="no"?>
<!-- Generator: Adobe Illustrator 22.1.0, SVG Export Plug-In . SVG Version: 6.00 Build 0)  -->

<svg
   version="1.0"
   x="0px"
   y="0px"
   viewBox="0 0 576 216"
   style="enable-background:new 0 0 576 216;"
   xml:space="preserve"
   id="svg28"
   sodipodi:docname="ksu-logo-hz.svg"
   inkscape:version="1.4.3 (0d15f75, 2025-12-25)"
   xmlns:inkscape="http://www.inkscape.org/namespaces/inkscape"
   xmlns:x="adobe:ns:meta/"
   xmlns:sodipodi="http://sodipodi.sourceforge.net/DTD/sodipodi-0.dtd"
   xmlns="http://www.w3.org/2000/svg"
   xmlns:svg="http://www.w3.org/2000/svg"
   xmlns:rdf="http://www.w3.org/1999/02/22-rdf-syntax-ns#"><defs
   id="defs28" /><sodipodi:namedview
   id="namedview28"
   pagecolor="#ffffff"
   bordercolor="#000000"
   borderopacity="0.25"
   inkscape:showpageshadow="2"
   inkscape:pageopacity="0.0"
   inkscape:pagecheckerboard="0"
   inkscape:deskcolor="#d1d1d1"
   inkscape:zoom="1.0951135"
   inkscape:cx="253.3984"
   inkscape:cy="112.31713"
   inkscape:window-width="1470"
   inkscape:window-height="829"
   inkscape:window-x="0"
   inkscape:window-y="33"
   inkscape:window-maximized="1"
   inkscape:current-layer="svg28" />
<metadata
   id="metadata1"><?xpacket begin="﻿" id="W5M0MpCehiHzreSzNTczkc9d"?>
<x:xmpmeta
   x:xmptk="Adobe XMP Core 5.6-c143 79.161356, 2017/09/07-01:11:22        ">
   <rdf:RDF>
      <rdf:Description
   rdf:about="" />
   </rdf:RDF>
</x:xmpmeta>
                                                                                                    
                                                                                                    
                                                                                                    
                                                                                                    
                                                                                                    
                                                                                                    
                                                                                                    
                                                                                                    
                                                                                                    
                                                                                                    
                                                                                                    
                                                                                                    
                                                                                                    
                                                                                                    
                                                                                                    
                                                                                                    
                                                                                                    
                                                                                                    
                                                                                                    
                                                                                                    
                           
<?xpacket end="w"?></metadata>

<g
   id="g29"
   transform="translate(0,-13.402781)"><g
     id="KS__x26__rule"
     transform="matrix(1.2654016,0,0,1.2654016,-76.435662,-15.260592)">
	<line
   style="fill:none;stroke:#000000;stroke-width:1.0839;stroke-miterlimit:10"
   x1="185.39999"
   y1="74.300003"
   x2="185.39999"
   y2="139.89999"
   id="line1" />
	<g
   id="g2">
		<path
   d="m 168,128 v -11.2 c 0,-2.1 -0.3,-4.5 -1.1,-5.8 -2.8,-4.6 -8.9,-5.7 -13.7,-6.8 -2,-0.5 -9.9,-1.8 -19.5,-3.4 L 141,92 c 2.9,0.2 5.7,0.4 8.3,0.8 v 7.2 h 18.6 V 86.2 c 0.1,-6.1 -6.9,-8.3 -11.6,-9.4 -0.7,-0.2 -1.5,-0.3 -2.4,-0.5 L 169.4,57.5 H 132 c 1,1.9 4.9,9.3 4.9,9.3 l -6.3,7.7 c -4.6,-0.1 -9,-0.2 -12.5,-0.2 h -1.3 V 57.5 H 90.4 l 6.5,12.4 v 4.4 H 67.8 l 4.1,7.3 c -0.9,1.3 -1.5,3 -1.5,4.6 v 12.6 c -0.1,8.5 12.3,10.9 18.6,12.2 2.6,0.4 5.3,0.9 7.9,1.3 v 9.8 c -2.6,-0.1 -5.2,-0.4 -7.7,-0.7 V 115 H 70.5 v 13 c -0.1,8.7 13.8,9.8 20,10.5 2.2,0.3 4.3,0.5 6.5,0.6 v 7 l -6.5,12.4 h 26.3 v -18.7 c 1.1,0 2.2,0 3.4,0 3,0 6,0 9,-0.1 l 7.7,9.5 -4.9,9.2 h 37.2 l -16.6,-20.3 c 6.6,-0.9 15.4,-3 15.4,-10.1 m -28.5,-5.6 -3.2,-3.9 c 3.1,0.5 6.3,1 9.4,1.5 1.2,0.2 2.5,0.5 3.5,0.8 v 0.7 c -3.2,0.5 -6.4,0.7 -9.7,0.9 M 96.9,91.9 V 95 c -0.8,-0.1 -1.5,-0.2 -2.1,-0.3 -0.7,-0.1 -4.7,-1 -5.7,-1.3 v -0.8 c 2.7,-0.3 5.2,-0.6 7.8,-0.7 m 0,15.5 -6.9,-1.1 C 79.9,104.2 75.3,101.6 75.3,98.8 V 86.3 c 0,-1.4 0.9,-2.6 2.8,-3.6 l -2,-3.5 h 44.7 c 2,0 3.9,0 5.8,0 l -6.3,7.6 c -14.7,0 -36.1,-0.2 -36.1,2.3 v 6.4 c 0,1.4 3.8,2.8 7.5,3.5 l 5.1,0.8 v 7.6 z m 53.3,-26.7 c 8.2,1.2 12.8,3 12.8,5.5 V 95 h -8.9 v -5.9 c 0,-1 -4,-1.5 -9.3,-1.9 z m -20,24.4 14.9,2.3 c 13.3,2.7 16.2,3.7 17.5,6 0.2,0.3 0.5,1.1 0.5,3.4 V 128 c 0,2.7 -5.1,4.6 -14.3,5.8 l -5.7,-6.9 c 6.4,-0.4 11,-1.2 11,-2.4 V 119 c 0,-1.4 -4,-2.8 -7.5,-3.5 l -14.8,-2.3 -4.1,-5 z M 84.3,125 c 0,2.3 26.1,2.3 34.5,2.3 l 6.3,7.7 c -1.4,0 -2.7,0 -4.2,0 -26.2,0 -45.6,-2.3 -45.6,-7.1 v -8.1 h 9 v 5.2 m 37.2,-17 37.3,45.6 H 140 l 2.6,-4.9 -30.8,-37.6 v 11.4 c -3.3,0 -6.7,0 -10,-0.1 V 91.7 c 3.3,-0.1 6.7,-0.1 10,-0.1 v 13.3 l 30.8,-37.5 -2.7,-5.1 h 19 z M 101.8,68.7 98.5,62.4 h 13.4 v 12 h -10 v -5.7 z m 0,70.7 c 3.3,0.2 6.7,0.3 10,0.4 v 13.8 H 98.5 l 3.3,-6.3 z"
   id="path1" />
		<path
   d="m 163.4,141.1 c 0,1.1 -0.8,1.9 -1.9,1.9 -1.1,0 -1.9,-0.8 -1.9,-1.9 0,-1 0.9,-1.9 1.9,-1.9 1.1,0 1.9,0.9 1.9,1.9 m -3.3,0 c 0,0.8 0.6,1.5 1.5,1.5 0.8,0 1.4,-0.7 1.4,-1.5 0,-0.8 -0.6,-1.5 -1.4,-1.5 -0.9,0 -1.5,0.7 -1.5,1.5 m 1.1,1 h -0.4 v -1.9 c 0.2,0 0.4,-0.1 0.7,-0.1 0.4,0 0.5,0.1 0.6,0.1 0.1,0.1 0.2,0.2 0.2,0.4 0,0.2 -0.2,0.4 -0.4,0.4 v 0 c 0.2,0.1 0.3,0.2 0.3,0.5 0.1,0.3 0.1,0.4 0.1,0.5 H 162 c -0.1,-0.1 -0.1,-0.2 -0.1,-0.5 0,-0.2 -0.1,-0.3 -0.4,-0.3 h -0.2 v 0.9 z m 0,-1.1 h 0.2 c 0.2,0 0.4,-0.1 0.4,-0.3 0,-0.2 -0.1,-0.3 -0.4,-0.3 -0.1,0 -0.2,0 -0.2,0 z"
   id="path2" />
	</g>
</g><g
     id="text"
     transform="matrix(1.2654016,0,0,1.2654016,-76.435662,-15.260592)">
	<g
   id="g28">
		<g
   id="g27">
			<g
   id="g26">
				<g
   id="g15">
					<path
   d="m 202.9,93.2 -3.1,3.2 v 5.8 h -5.3 V 79.1 h 5.3 V 89.9 L 210,79.1 h 5.9 l -9.6,10.3 10.1,12.8 h -6.2 z"
   id="path3" />
					<path
   d="m 236.7,97.9 v 4.3 H 218.8 V 79.1 h 17.5 v 4.3 h -12.1 v 5 h 10.7 v 4.2 h -10.7 v 5.3 z"
   id="path4" />
					<path
   d="m 262.2,79.1 v 23.1 h -4.4 l -11.5,-14 v 14 H 241 V 79.1 h 4.4 l 11.5,14 v -14 z"
   id="path5" />
					<path
   d="m 289.7,79.1 v 23.1 h -4.4 l -11.5,-14 v 14 h -5.3 V 79.1 h 4.4 l 11.5,14 v -14 z"
   id="path6" />
					<path
   d="m 313.9,97.9 v 4.3 H 296 V 79.1 h 17.5 v 4.3 h -12.1 v 5 H 312 v 4.2 h -10.7 v 5.3 z"
   id="path7" />
					<path
   d="m 316.3,100 1.8,-4 c 1.9,1.4 4.9,2.4 7.6,2.4 3.2,0 4.5,-1.1 4.5,-2.5 0,-4.3 -13.4,-1.4 -13.4,-9.9 0,-3.9 3.2,-7.2 9.7,-7.2 2.9,0 5.9,0.7 8,2 l -1.7,4.1 c -2.1,-1.2 -4.4,-1.8 -6.4,-1.8 -3.2,0 -4.4,1.2 -4.4,2.6 0,4.3 13.4,1.3 13.4,9.8 0,3.9 -3.2,7.2 -9.8,7.2 -3.6,-0.1 -7.3,-1.2 -9.3,-2.7 z"
   id="path8" />
					<path
   d="m 354.2,97.3 h -10.7 l -2,5 H 336 l 10.3,-23.1 h 5.3 l 10.3,23.1 h -5.6 z m -1.7,-4.1 -3.7,-8.8 -3.7,8.8 z"
   id="path9" />
					<path
   d="m 396.5,79.1 -7.6,23.1 h -5.7 l -5.1,-15.6 -5.2,15.6 h -5.7 l -7.6,-23.1 h 5.5 l 5.2,16.2 5.4,-16.2 h 5 l 5.3,16.4 5.4,-16.4 z"
   id="path10" />
					<path
   d="m 407.5,100 1.8,-4 c 1.9,1.4 4.9,2.4 7.6,2.4 3.2,0 4.5,-1.1 4.5,-2.5 0,-4.3 -13.4,-1.4 -13.4,-9.9 0,-3.9 3.2,-7.2 9.7,-7.2 2.9,0 5.9,0.7 8,2 l -1.7,4.1 c -2.1,-1.2 -4.4,-1.8 -6.4,-1.8 -3.2,0 -4.4,1.2 -4.4,2.6 0,4.3 13.4,1.3 13.4,9.8 0,3.9 -3.2,7.2 -9.8,7.2 -3.5,-0.1 -7.2,-1.2 -9.3,-2.7 z"
   id="path11" />
					<path
   d="m 434.7,83.5 h -7.4 v -4.4 h 20.1 v 4.4 H 440 v 18.7 h -5.3 z"
   id="path12" />
					<path
   d="m 462.6,97.3 h -10.7 l -2,5 h -5.5 l 10.3,-23.1 h 5.3 l 10.3,23.1 h -5.6 z m -1.7,-4.1 -3.7,-8.8 -3.7,8.8 z"
   id="path13" />
					<path
   d="m 474.5,83.5 h -7.4 v -4.4 h 20.1 v 4.4 h -7.4 v 18.7 h -5.3 z"
   id="path14" />
					<path
   d="m 508.2,97.9 v 4.3 H 490.3 V 79.1 h 17.5 v 4.3 h -12.1 v 5 h 10.7 v 4.2 h -10.7 v 5.3 z"
   id="path15" />
				</g>
				<g
   id="g25">
					<path
   d="m 194.5,125.1 v -13.2 h 2.4 V 125 c 0,5.5 2.6,8 7.1,8 4.5,0 7.1,-2.5 7.1,-8 v -13.1 h 2.4 v 13.2 c 0,6.6 -3.6,10.1 -9.5,10.1 -5.9,0 -9.5,-3.5 -9.5,-10.1 z"
   id="path16" />
					<path
   d="m 252.9,111.8 v 23.1 h -2 L 236,116.2 v 18.7 h -2.4 v -23.1 h 2 l 14.9,18.7 v -18.7 z"
   id="path17" />
					<path
   d="m 273.3,111.8 h 2.4 v 23.1 h -2.4 z"
   id="path18" />
					<path
   d="M 315.3,111.8 305,134.9 h -2.4 l -10.2,-23.1 h 2.6 l 8.8,20.1 8.9,-20.1 z"
   id="path19" />
					<path
   d="m 348.2,132.8 v 2.1 h -16.3 v -23.1 h 15.8 v 2.1 h -13.4 v 8.2 h 11.9 v 2.1 h -11.9 v 8.6 z"
   id="path20" />
					<path
   d="m 382.5,134.9 -5.3,-7.4 c -0.6,0.1 -1.2,0.1 -1.8,0.1 h -6.2 v 7.3 h -2.4 v -23.1 h 8.6 c 5.9,0 9.4,3 9.4,7.9 0,3.6 -1.9,6.2 -5.3,7.3 l 5.6,7.9 z m -0.1,-15.2 c 0,-3.7 -2.4,-5.8 -7.1,-5.8 h -6.1 v 11.6 h 6.1 c 4.7,0 7.1,-2.1 7.1,-5.8 z"
   id="path21" />
					<path
   d="m 401.2,132.1 1,-1.9 c 1.6,1.6 4.6,2.8 7.6,2.8 4.3,0 6.2,-1.8 6.2,-4.1 0,-6.3 -14.2,-2.4 -14.2,-11 0,-3.4 2.6,-6.3 8.5,-6.3 2.6,0 5.3,0.8 7.2,2 l -0.8,1.9 c -2,-1.3 -4.3,-1.9 -6.3,-1.9 -4.2,0 -6.1,1.9 -6.1,4.2 0,6.3 14.2,2.5 14.2,10.9 0,3.4 -2.7,6.3 -8.6,6.3 -3.6,0.1 -7,-1.1 -8.7,-2.9 z"
   id="path22" />
					<path
   d="m 436.5,111.8 h 2.4 v 23.1 h -2.4 z"
   id="path23" />
					<path
   d="m 463.8,113.9 h -8.1 v -2.1 h 18.7 v 2.1 h -8.1 v 21 h -2.4 v -21 z"
   id="path24" />
					<path
   d="m 499,126.9 v 8 h -2.4 v -8 l -9.2,-15.1 h 2.6 l 7.9,13 7.9,-13 h 2.4 z"
   id="path25" />
				</g>
			</g>
		</g>
	</g>
</g></g>
</svg>
