<?xml version="1.0" encoding="UTF-8" standalone="no"?>
<!-- Generator: Adobe Illustrator 22.1.0, SVG Export Plug-In . SVG Version: 6.00 Build 0)  -->

<svg
   version="1.0"
   x="0px"
   y="0px"
   viewBox="0 0 268.21948 273.26141"
   xml:space="preserve"
   id="svg26"
   sodipodi:docname="ksu-monogram.svg"
   inkscape:version="1.4.3 (0d15f75, 2025-12-25)"
   width="268.21948"
   height="273.26141"
   xmlns:inkscape="http://www.inkscape.org/namespaces/inkscape"
   xmlns:x="adobe:ns:meta/"
   xmlns:sodipodi="http://sodipodi.sourceforge.net/DTD/sodipodi-0.dtd"
   xmlns="http://www.w3.org/2000/svg"
   xmlns:svg="http://www.w3.org/2000/svg"
   xmlns:rdf="http://www.w3.org/1999/02/22-rdf-syntax-ns#"><defs
   id="defs26" /><sodipodi:namedview
   id="namedview26"
   pagecolor="#ffffff"
   bordercolor="#000000"
   borderopacity="0.25"
   inkscape:showpageshadow="2"
   inkscape:pageopacity="0.0"
   inkscape:pagecheckerboard="0"
   inkscape:deskcolor="#d1d1d1"
   inkscape:zoom="0.75446007"
   inkscape:cx="101.39702"
   inkscape:cy="157.72869"
   inkscape:window-width="1470"
   inkscape:window-height="829"
   inkscape:window-x="0"
   inkscape:window-y="33"
   inkscape:window-maximized="1"
   inkscape:current-layer="svg26" />
<metadata
   id="metadata1"><?xpacket begin="﻿" id="W5M0MpCehiHzreSzNTczkc9d"?>
<x:xmpmeta
   x:xmptk="Adobe XMP Core 5.6-c143 79.161356, 2017/09/07-01:11:22        ">
   <rdf:RDF>
      <rdf:Description
   rdf:about="" />
   </rdf:RDF>
</x:xmpmeta>
                                                                                                    
                                                                                                    
                                                                                                    
                                                                                                    
                                                                                                    
                                                                                                    
                                                                                                    
                                                                                                    
                                                                                                    
                                                                                                    
                                                                                                    
                                                                                                    
                                                                                                    
                                                                                                    
                                                                                                    
                                                                                                    
                                                                                                    
                                                                                                    
                                                                                                    
                                                                                                    
                           
<?xpacket end="w"?></metadata>

<g
   id="g27"
   transform="translate(-153.94026,-7.4192932)"><g
     id="KS__x26__rule"
     transform="matrix(1.777465,0,0,1.8376692,-223.85994,-120.66625)">
	<line
   style="fill:none;stroke:#000000;stroke-miterlimit:10"
   x1="212.8"
   y1="182.2"
   x2="363.20001"
   y2="182.2"
   id="line1" />
	<g
   id="g2">
		<path
   d="m 337.4,140.1 v -11.2 c 0,-2.1 -0.3,-4.5 -1.1,-5.8 -2.8,-4.6 -8.9,-5.7 -13.7,-6.8 -2,-0.5 -9.9,-1.8 -19.5,-3.4 l 7.3,-8.8 c 2.9,0.2 5.7,0.4 8.3,0.8 v 7.2 h 18.6 V 98.4 c 0.1,-6.1 -6.9,-8.3 -11.6,-9.4 -0.7,-0.2 -1.5,-0.3 -2.4,-0.5 l 15.5,-18.8 h -37.3 c 1,1.9 4.9,9.3 4.9,9.3 l -6.3,7.7 c -4.6,-0.1 -9,-0.2 -12.5,-0.2 h -1.3 V 69.7 H 260 l 6.5,12.4 v 4.4 h -29.1 l 4.1,7.3 c -0.9,1.3 -1.5,3 -1.5,4.6 V 111 c -0.1,8.5 12.3,10.9 18.6,12.2 2.6,0.4 5.3,0.9 7.9,1.3 v 9.8 c -2.6,-0.1 -5.2,-0.4 -7.7,-0.7 V 127 h -18.7 v 13 c -0.1,8.7 13.8,9.8 20,10.5 2.2,0.3 4.3,0.5 6.5,0.6 v 7 l -6.5,12.4 h 26.3 v -18.7 c 1.1,0 2.2,0 3.4,0 3,0 6,0 9,-0.1 l 7.7,9.5 -4.9,9.2 h 37.2 l -16.6,-20.3 c 6.5,-0.7 15.2,-2.8 15.2,-10 m -28.4,-5.5 -3.2,-3.9 c 3.1,0.5 6.3,1 9.4,1.5 1.2,0.2 2.5,0.5 3.5,0.8 v 0.7 c -3.2,0.5 -6.5,0.7 -9.7,0.9 m -42.6,-30.5 v 3.1 c -0.8,-0.1 -1.5,-0.2 -2.1,-0.3 -0.7,-0.1 -4.7,-1 -5.7,-1.3 v -0.8 c 2.6,-0.4 5.2,-0.6 7.8,-0.7 m 0,15.5 -6.9,-1.1 c -10.1,-2.1 -14.7,-4.7 -14.7,-7.5 V 98.4 c 0,-1.4 0.9,-2.6 2.8,-3.6 l -2,-3.5 h 44.7 c 2,0 3.9,0 5.8,0 l -6.3,7.6 c -14.7,0 -36.1,-0.2 -36.1,2.3 v 6.4 c 0,1.4 3.8,2.8 7.5,3.5 l 5.1,0.8 v 7.7 z m 53.3,-26.7 c 8.2,1.2 12.8,3 12.8,5.5 v 8.8 h -8.9 v -5.9 c 0,-1 -4,-1.5 -9.3,-1.9 z m -20,24.3 14.9,2.3 c 13.3,2.7 16.2,3.7 17.5,6 0.2,0.3 0.5,1.1 0.5,3.4 v 11.2 c 0,2.7 -5.1,4.6 -14.3,5.8 l -5.7,-6.9 c 6.4,-0.4 11,-1.2 11,-2.4 V 131 c 0,-1.4 -4,-2.8 -7.5,-3.5 l -14.8,-2.3 -4.1,-5 z m -45.9,20 c 0,2.3 26.1,2.3 34.5,2.3 l 6.3,7.7 c -1.4,0 -2.7,0 -4.2,0 -26.2,0 -45.6,-2.3 -45.6,-7.1 V 132 h 9 v 5.2 m 37.1,-17 37.3,45.6 h -18.8 l 2.6,-4.9 -30.8,-37.6 v 11.4 c -3.3,0 -6.7,0 -10,-0.1 v -30.7 c 3.3,-0.1 6.7,-0.1 10,-0.1 v 13.3 L 312,79.6 309.3,74.5 h 19 z m -19.7,-39.3 -3.3,-6.3 h 13.4 v 12 h -10 v -5.7 z m 0,70.7 c 3.3,0.2 6.7,0.3 10,0.4 v 13.8 h -13.4 l 3.3,-6.3 v -7.9 z"
   id="path1" />
		<path
   d="m 332.9,153.3 c 0,1.1 -0.8,1.9 -1.9,1.9 -1.1,0 -1.9,-0.8 -1.9,-1.9 0,-1 0.9,-1.9 1.9,-1.9 1.1,0 1.9,0.8 1.9,1.9 m -3.4,0 c 0,0.8 0.6,1.5 1.5,1.5 0.8,0 1.4,-0.7 1.4,-1.5 0,-0.8 -0.6,-1.5 -1.4,-1.5 -0.9,0 -1.5,0.7 -1.5,1.5 m 1.2,1 h -0.4 v -1.9 c 0.2,0 0.4,-0.1 0.7,-0.1 0.4,0 0.5,0.1 0.6,0.1 0.1,0.1 0.2,0.2 0.2,0.4 0,0.2 -0.2,0.4 -0.4,0.4 v 0 c 0.2,0.1 0.3,0.2 0.3,0.5 0.1,0.3 0.1,0.4 0.1,0.5 h -0.5 c -0.1,-0.1 -0.1,-0.2 -0.1,-0.5 0,-0.2 -0.1,-0.3 -0.4,-0.3 h -0.2 v 0.9 z m 0,-1.1 h 0.2 c 0.2,0 0.4,-0.1 0.4,-0.3 0,-0.2 -0.1,-0.3 -0.4,-0.3 -0.1,0 -0.2,0 -0.2,0 z"
   id="path2" />
	</g>
</g><g
     id="text"
     transform="matrix(1.777465,0,0,1.8376692,-223.9488,-120.66625)">
	<g
   id="g26">
		<g
   id="g12">
			<path
   d="m 212.6,214.1 v -5.6 h 1 v 5.6 c 0,2.3 1.1,3.4 3,3.4 1.9,0 3,-1.1 3,-3.4 v -5.6 h 1 v 5.6 c 0,2.8 -1.5,4.3 -4,4.3 -2.5,0 -4,-1.5 -4,-4.3 z"
   id="path3" />
			<path
   d="m 239.3,208.4 v 9.8 h -0.9 l -6.3,-8 v 8 h -1 v -9.8 h 0.9 l 6.3,8 v -8 z"
   id="path4" />
			<path
   d="m 249.7,208.4 h 1 v 9.8 h -1 z"
   id="path5" />
			<path
   d="m 270.1,208.4 -4.3,9.8 h -1 l -4.3,-9.8 h 1.1 l 3.8,8.5 3.8,-8.5 z"
   id="path6" />
			<path
   d="m 285.9,217.4 v 0.9 H 279 v -9.8 h 6.7 v 0.9 H 280 v 3.5 h 5.1 v 0.9 H 280 v 3.6 z"
   id="path7" />
			<path
   d="m 302.3,218.2 -2.2,-3.2 c -0.3,0 -0.5,0 -0.8,0 h -2.6 v 3.1 h -1 v -9.8 h 3.7 c 2.5,0 4,1.3 4,3.4 0,1.5 -0.8,2.6 -2.2,3.1 l 2.4,3.4 z m 0,-6.4 c 0,-1.6 -1,-2.5 -3,-2.5 h -2.6 v 4.9 h 2.6 c 1.9,0.1 3,-0.9 3,-2.4 z"
   id="path8" />
			<path
   d="m 312.4,217.1 0.4,-0.8 c 0.7,0.7 1.9,1.2 3.2,1.2 1.8,0 2.6,-0.8 2.6,-1.7 0,-2.7 -6,-1 -6,-4.7 0,-1.4 1.1,-2.7 3.6,-2.7 1.1,0 2.3,0.3 3,0.9 l -0.3,0.8 c -0.8,-0.5 -1.8,-0.8 -2.7,-0.8 -1.8,0 -2.6,0.8 -2.6,1.8 0,2.7 6,1.1 6,4.6 0,1.4 -1.1,2.7 -3.7,2.7 -1.3,-0.1 -2.7,-0.6 -3.5,-1.3 z"
   id="path9" />
			<path
   d="m 329.3,208.4 h 1 v 9.8 h -1 z"
   id="path10" />
			<path
   d="m 342.7,209.3 h -3.4 v -0.9 h 7.9 v 0.9 h -3.4 v 8.9 h -1 v -8.9 z"
   id="path11" />
			<path
   d="m 359.5,214.9 v 3.4 h -1 v -3.4 l -3.9,-6.4 h 1.1 l 3.4,5.5 3.4,-5.5 h 1 z"
   id="path12" />
		</g>
		<g
   id="g25">
			<path
   d="m 216.7,199 -1.5,1.6 v 2.8 h -2.6 v -11.2 h 2.6 v 5.2 l 5,-5.2 h 2.9 l -4.6,5 4.9,6.2 h -3 z"
   id="path13" />
			<path
   d="m 233.1,201.3 v 2.1 h -8.7 v -11.2 h 8.5 v 2.1 H 227 v 2.4 h 5.2 v 2 H 227 v 2.6 z"
   id="path14" />
			<path
   d="m 245.5,192.2 v 11.2 h -2.1 l -5.6,-6.8 v 6.8 h -2.6 v -11.2 h 2.1 l 5.6,6.8 v -6.8 z"
   id="path15" />
			<path
   d="m 258.3,192.2 v 11.2 h -2.1 l -5.6,-6.8 v 6.8 H 248 v -11.2 h 2.1 l 5.6,6.8 v -6.8 z"
   id="path16" />
			<path
   d="m 269.6,201.3 v 2.1 h -8.7 v -11.2 h 8.5 v 2.1 h -5.9 v 2.4 h 5.2 v 2 h -5.2 v 2.6 z"
   id="path17" />
			<path
   d="m 270.7,202.3 0.9,-2 c 0.9,0.7 2.4,1.2 3.7,1.2 1.5,0 2.2,-0.5 2.2,-1.2 0,-2.1 -6.5,-0.7 -6.5,-4.8 0,-1.9 1.5,-3.5 4.7,-3.5 1.4,0 2.8,0.3 3.9,1 l -0.8,2 c -1,-0.6 -2.1,-0.9 -3.1,-0.9 -1.5,0 -2.1,0.6 -2.1,1.3 0,2.1 6.5,0.6 6.5,4.7 0,1.9 -1.6,3.5 -4.7,3.5 -1.9,0 -3.7,-0.5 -4.7,-1.3 z"
   id="path18" />
			<path
   d="m 289,201 h -5.2 l -1,2.4 h -2.7 l 5,-11.2 h 2.6 l 5,11.2 H 290 Z m -0.8,-2 -1.8,-4.3 -1.8,4.3 z"
   id="path19" />
			<path
   d="m 309.3,192.2 -3.7,11.2 h -2.8 l -2.5,-7.6 -2.5,7.6 H 295 l -3.7,-11.2 h 2.7 l 2.5,7.9 2.6,-7.9 h 2.4 l 2.6,7.9 2.6,-7.9 z"
   id="path20" />
			<path
   d="m 314.7,202.3 0.9,-2 c 0.9,0.7 2.4,1.2 3.7,1.2 1.5,0 2.2,-0.5 2.2,-1.2 0,-2.1 -6.5,-0.7 -6.5,-4.8 0,-1.9 1.5,-3.5 4.7,-3.5 1.4,0 2.8,0.3 3.9,1 l -0.8,2 c -1,-0.6 -2.1,-0.9 -3.1,-0.9 -1.5,0 -2.1,0.6 -2.1,1.3 0,2.1 6.5,0.6 6.5,4.7 0,1.9 -1.6,3.5 -4.8,3.5 -1.9,0 -3.6,-0.5 -4.6,-1.3 z"
   id="path21" />
			<path
   d="m 327.8,194.3 h -3.6 v -2.1 h 9.8 v 2.1 h -3.6 v 9.1 h -2.6 z"
   id="path22" />
			<path
   d="m 341.3,201 h -5.2 l -1,2.4 h -2.7 l 5,-11.2 h 2.6 l 5,11.2 h -2.7 z m -0.8,-2 -1.8,-4.3 -1.7,4.3 z"
   id="path23" />
			<path
   d="m 347.1,194.3 h -3.6 v -2.1 h 9.8 v 2.1 h -3.6 v 9.1 h -2.6 z"
   id="path24" />
			<path
   d="m 363.3,201.3 v 2.1 h -8.7 v -11.2 h 8.5 v 2.1 h -5.9 v 2.4 h 5.2 v 2 h -5.2 v 2.6 z"
   id="path25" />
		</g>
	</g>
</g></g>
</svg>
