<?xml version="1.0" encoding="utf-8"?>
<!-- Generator: Adobe Illustrator 24.1.1, SVG Export Plug-In . SVG Version: 6.00 Build 0)  -->
<svg version="1.1" id="Layer_1" xmlns="http://www.w3.org/2000/svg" xmlns:xlink="http://www.w3.org/1999/xlink" x="0px" y="0px"
	 viewBox="0 0 1920 313.7" style="enable-background:new 0 0 1920 313.7;" xml:space="preserve">
<g>
	<path d="M576,219.9c0-3.9,0-7.9,0-11.8c0-51,0-102.1,0-153.1c0-3.4-0.4-6.8,0.2-10c1.5-8.4,6.6-13.4,15.4-13.3
		c8.8,0.1,13.6,5.3,14.9,13.7c0.4,2.6,0.1,5.2,0.1,7.8c0,69.7,0,139.3,0.1,209c0,9-0.3,17.5-10.7,20.9c-9.9,3.2-15.3-3.3-20.6-9.7
		c-47.9-58-95.8-116.1-143.6-174.2c-1.8-2.1-2.9-4.8-4.3-7.2c-1.3,0.7-2.5,1.5-3.8,2.2c0,3.9,0,7.8,0,11.7c0,52.9,0,105.8,0,158.7
		c0,12.7-5.3,19.7-14.6,19.6c-9.5-0.1-15.3-7-15.3-19.5c-0.1-71.2,0-142.3-0.1-213.5c0-8.5,1.7-15.9,10.7-18.8
		c8.9-2.8,14.5,2,19.9,8.6C471,98,518,154.9,565,211.8c2.6,3.1,5.3,6,7.9,9.1C573.9,220.6,575,220.2,576,219.9z"/>
	<path d="M645.7,157.6c0-35.4,0-70.8,0-106.1c0-15.7,4.3-20.2,19.9-20c25,0.3,50.5-1.9,74.9,2.3c44.9,7.6,74.3,36,90,78.2
		c21.3,57.1,0.3,125.3-53.5,156.7c-17.9,10.4-37.2,15.1-57.7,15.4c-17.2,0.3-34.4,0.1-51.5,0c-17.7,0-22-4.2-22-21.5
		C645.7,227.6,645.7,192.6,645.7,157.6z M675,157.5c0,28.7,0.2,57.3-0.1,86c-0.1,7.1,2.2,10.2,9.6,9.9c9.3-0.4,18.7-0.2,28-0.1
		c41.4,0.3,70.2-19.1,87.3-56.2c24.8-53.8-6-119.8-62.9-132.5c-16.4-3.7-34.2-1.4-51.3-2.4c-8.2-0.5-11.1,1.9-10.9,10.5
		C675.4,101,675,129.2,675,157.5z"/>
	<path d="M1751.6,62.3c0,25.8,0.1,49.6-0.1,73.4c0,7.6,5.1,6.8,9.9,6.8c28.4,0,56.8,0,85.2,0c13.6,0,20.1,5,20.1,15.2
		c-0.1,10.2-6.8,15.6-20.1,15.6c-27.3,0.1-54.5,0-81.8,0c-4,0-8,0.3-13.2,0.6c0,25,0,49.1,0,73.3c0,7.9,6.2,6,10.6,6.1
		c35.1,0.1,70.2,0.1,105.4,0.1c3.4,0,7.6-1.1,9.9,0.5c4.8,3.2,11.7,7.7,12.1,12.1c0.4,5.1-4.3,11.6-8.4,16
		c-2.2,2.3-7.7,2.1-11.7,2.1c-42.6,0.1-85.2,0.1-127.8,0.1c-16.3,0-21.1-5-21.1-21.5c0-70,0-140.1,0-210.1c0-16.2,4.6-21,20.2-21
		c43.3-0.1,86.7-0.3,130,0.3c6.1,0.1,14.3,3.5,17.9,8.1c7.6,10.1-1.4,22.3-15.9,22.3c-35.9,0.2-71.7,0.1-107.6,0.1
		C1761.2,62.3,1757.2,62.3,1751.6,62.3z"/>
	<path d="M167,174.1c13-19.2,24.7-36.4,36.4-53.6c17.8-26.2,35.6-52.4,53.2-78.7c5-7.5,11.1-12.6,20.4-9.3
		c8.9,3.1,10,10.6,10.1,19.1c0.8,69.3,1.8,138.5,2.7,207.8c0,2.6,0,5.2,0,7.8c0,9.7-4.8,15.6-14.5,16.6c-8.8,0.9-15.7-6.1-16.1-16.3
		c-0.5-17.5-0.6-35-0.8-52.5c-0.3-35-0.6-70-0.9-105.1c0-2.8-0.7-5.5-1.5-11.4c-10,14.7-18.4,26.7-26.6,38.9
		c-15.7,23.1-31.3,46.3-47.1,69.4c-8.4,12.2-18.9,12.8-28.1,1.3c-39.8-49.4-79.4-98.8-119-148.4c-8.1-10.2-7.8-18.1-0.1-24.5
		c7.5-6.3,16.5-4.8,24.1,4.6c22.7,28.2,45.2,56.5,67.8,84.7C139.9,140.5,152.7,156.4,167,174.1z"/>
	<path d="M950.6,29.5c26.4,2.3,50.8,8,71.6,24.4c3.7,2.9,8.5,6.9,8.9,10.8c0.5,6-0.5,14.2-4.3,18c-6.2,6.1-14.1,3.6-21.1-2
		c-26.1-20.9-66.8-24.6-94.9-9.1c-16.5,9.1-23.4,23.8-15.8,38.8c3.5,7,10.7,14.2,17.9,17c19,7.4,39,12.3,58.5,18.5
		c12.4,3.9,25,7.6,37,12.4c51.2,20.6,44.1,76.5,18.3,102.1c-17.8,17.6-39.9,24.2-64.3,23.6c-36-0.9-70-7.5-95.3-36.1
		c-3-3.4-6.5-8.5-6.1-12.4c0.6-5.5,3.5-13,7.7-15.2c4.2-2.2,13.9-1,16.7,2.4c19,22.8,44.7,28.4,72.1,30.4c16,1.1,31.5-1.2,44.2-12.1
		c22.8-19.5,19.1-45.1-9-55.5c-20.2-7.4-41.5-12-62.2-18c-19.8-5.7-39.7-11.9-53.9-27.9c-30.1-33.8-14-85.3,32-101.1
		C921.9,34,936.5,32.5,950.6,29.5z"/>
	<path d="M1498.8,266.2c0,10.4-4.4,15.6-12.2,17.2c-8.1,1.7-13.8-2.4-17-9.5c-6.8-15.3-13.6-30.6-19.6-46.2
		c-3-7.7-7.1-10.7-15.7-10.5c-30.2,0.5-60.5,0.4-90.8,0c-7.4-0.1-11.6,2.1-14.4,9.1c-5.9,14.9-12.3,29.5-18.8,44.1
		c-5.3,12-12.5,15.8-21.4,12.1c-9.3-3.9-12.1-12.7-7-24.6c30.4-71.1,60.9-142.2,91.5-213.3c3.1-7.1,7.4-15,16-12.6
		c6.1,1.7,13.2,7.4,15.7,13.1c30.6,70.2,60.5,140.8,90.5,211.3C1497.3,260.3,1498.2,264.3,1498.8,266.2z M1390.8,89.6
		c-1.1,0.2-2.1,0.4-3.2,0.6c-13.5,31.5-27,63.1-40.8,95.4c29.1,0,56.5,0,85,0C1417.8,152.8,1404.3,121.2,1390.8,89.6z"/>
	<path d="M1522.1,157.4c0-34.2,0-68.5,0-102.7c0-19.1,4.3-23.3,23.8-23.3c21.3,0,42.6-0.3,63.8,0.1c41.6,0.7,74,29.9,78.9,70.9
		c4.7,39.1-20.9,76.9-60.8,85.6c-17.2,3.8-35.6,2.1-53.5,2.8c-4.1,0.2-8.2,0.3-12.3,0c-7.4-0.7-9.7,2.5-9.6,9.7
		c0.4,21.2,0.2,42.4,0.1,63.6c0,13.8-5,20.2-15.3,20c-10-0.2-15.1-7-15.2-20.6C1522.1,228.1,1522.1,192.8,1522.1,157.4z
		 M1554.1,63.1c-0.5,1.6-1.3,3-1.3,4.4c-0.1,28.3,0,56.6-0.2,85c-0.1,7.2,4.1,7.6,9.5,7.5c16.1-0.4,32.1-0.7,48.2-1
		c25.1-0.4,46-19.5,48.1-44.1c2-24-16-48.8-40.3-51.3C1597,61.4,1575.6,63.1,1554.1,63.1z"/>
	<path d="M1186.1,31.4c26.5,0.3,51.1,6.2,71.3,24.4c3.6,3.2,7,6.8,9.7,10.7c5.1,7.3,5.5,14.8-1.6,21c-7.4,6.5-14.4,4.6-22.1-1
		c-10.6-7.8-21.4-17.1-33.6-20.5c-44.3-12.5-85.1,7.7-104.3,49.3c-23.1,50.2-2.7,110,45.9,130.5c28.4,12,56.8,10.4,83.1-7.6
		c10.3-7.1,18.9-6.8,24.5,1.1c5.4,7.6,3.1,16.6-6.2,24.2c-37.2,30-103.7,26.8-143.6-6.9c-63.2-53.5-56.4-162,13.1-207.2
		C1141.8,36.7,1163.2,31.3,1186.1,31.4z"/>
	<path d="M60.1,166.7c0,23.3,0,46.7,0,70c0,10.4,0.3,20.9-0.4,31.3c-0.6,9.3-5.7,15.4-15.6,15.8c-8.7,0.3-15.5-6.9-15.5-17
		c-0.2-49.9-0.1-99.9-0.1-149.8c0-7.7,2.8-15.4,10.9-15.9c6-0.4,14.7,2.3,18.2,6.7c38.5,48.9,76.3,98.4,114.1,147.8
		c7.4,9.7,7.1,19.2-0.1,24.9c-7.9,6.3-16.7,4.3-24.8-6.2c-26-33.6-51.9-67.3-77.8-101c-2-2.6-4.1-5.1-6.2-7.6
		C62,166,61,166.3,60.1,166.7z"/>
	<path d="M323.8,157.5c0-35.4,0-70.8,0-106.2c0-13,4.9-19.5,14.4-19.7c9.9-0.2,16.1,7.1,16.1,19.9c0.1,70.8,0.1,141.6,0,212.4
		c0,14.2-8.7,22.3-19.5,19.2c-8.7-2.5-11-8.8-11-17.2C323.9,229.8,323.8,193.7,323.8,157.5z"/>
</g>
</svg>
