<?xml version="1.0" encoding="utf-8"?>
<!-- Generator: Adobe Illustrator 24.1.1, SVG Export Plug-In . SVG Version: 6.00 Build 0)  -->
<svg version="1.1" id="Layer_1" xmlns="http://www.w3.org/2000/svg" xmlns:xlink="http://www.w3.org/1999/xlink" x="0px" y="0px"
	 viewBox="0 0 946.1 313.7" style="enable-background:new 0 0 946.1 313.7;" xml:space="preserve">
<style type="text/css">
	.st0{fill-rule:evenodd;clip-rule:evenodd;}
</style>
<g>
	<path class="st0" d="M289.1,86.6c-22.1,0-38.7,10.9-41.3,28.4c-5.4,36.2,51.5,23.6,48.1,46.3c-1.2,7.9-9,12.4-20.9,12.4
		c-10.9,0-23.2-5.2-32.3-14.8l-9.6,14.8c9.1,9.6,23.2,16.2,39.2,16.2c22.4,0,40.1-11.2,42.8-29.4c5.6-36.7-51.2-24.7-47.9-47
		c1-6.8,8.1-10.6,18.2-10.6c7.7,0,18.4,2.8,28.4,9.5l9.4-15.1C314.7,90.8,302.4,86.6,289.1,86.6L289.1,86.6z M419.3,189.2
		l15.1-101.9h-17.2l-6.6,44.2h-54l6.6-44.2h-17.2L331,189.2h17.2l6.3-42.2h54l-6.3,42.2H419.3L419.3,189.2z M515.3,166.2h-51.4
		l-13.2,23h-17.9l60.1-101.9h17.6l29.4,101.9h-18.3L515.3,166.2L515.3,166.2z M511,150.9l-12.5-45.3l-25.9,45.3H511L511,150.9z
		 M568.6,87.3l-15.1,101.9h41.3c30.8,0,56.3-21.5,60.7-50.9c4.4-29.5-14.6-50.9-45.1-50.9H568.6L568.6,87.3z M583.5,102.7h24.3
		c20.1,0,33.4,14.8,30.4,35.7c-3.1,20.7-20.4,35.4-40.2,35.4h-25L583.5,102.7L583.5,102.7z M754.6,189.2l15.1-101.9h-17.2l-6.6,44.2
		h-54l6.6-44.2h-17.2l-15.1,101.9h17.2l6.3-42.2h54l-6.3,42.2H754.6L754.6,189.2z M798.5,189.2l15.1-101.9h-17.2l-15.1,101.9H798.5
		L798.5,189.2z M913.6,189.2l15.1-101.9h-16.9L901,160.5l-43.7-73.2h-16.9l-15.1,101.9h17.2l10.8-73l43.4,73H913.6z"/>
	<path class="st0" d="M242.8,223l13.7-19.5h-5l-10.3,14.3l-6.3-14.3h-5l8,19.7l-1.4,9.6h4.9L242.8,223L242.8,223z M272.2,203.3
		c8.7,0,14.6,6.4,13.3,14.8c-1.2,8.4-9,14.9-17.7,14.9c-8.7,0-14.6-6.5-13.3-14.9C255.7,209.6,263.5,203.3,272.2,203.3L272.2,203.3z
		 M271.6,207.7c-5.8,0-11.2,4.5-12.1,10.3c-0.9,5.8,3.3,10.4,9,10.4c5.7,0,11.1-4.6,12-10.4C281.4,212.2,277.3,207.7,271.6,207.7
		L271.6,207.7z M317.9,203.4H313l-2.5,17.2c-0.7,5-4.1,7.9-8.9,7.9c-4.8,0-7.4-3-6.7-7.9l2.5-17.2h-4.9l-2.5,17.2
		c-1.1,7.7,3,12.3,10.9,12.3c7.9,0,13.4-4.7,14.6-12.3L317.9,203.4L317.9,203.4z M339.2,232.7h5.6l-5.1-9.8c4.1-1.5,6.8-4.8,7.5-9.5
		c0.9-6.4-2.8-10-10.3-10H325l-4.3,29.3h4.9l1.3-8.8h6.9c0.5,0,0.9,0,1.3,0L339.2,232.7L339.2,232.7z M327.5,219.4l1.7-11.6h6.9
		c4.5,0,6.8,1.8,6.3,5.7c-0.6,4-3.5,5.9-8,5.9H327.5L327.5,219.4z M383.9,218.3l-1.2,8.2c-2.3,1.3-4.9,2-7,2c-6,0-10-4.6-9.2-10.4
		c0.9-5.8,6.2-10.4,12.2-10.4c3.1,0,6,1.3,8,3.3l3.3-3.6c-2.5-2.5-6.5-4.1-10.7-4.1c-8.9,0-16.6,6.4-17.9,14.8
		c-1.2,8.4,4.5,14.9,13.2,14.9c4,0,8.6-1.5,11.9-3.8l1.6-10.8H383.9L383.9,218.3z M411.6,232.7h5.6l-5.1-9.8
		c4.1-1.5,6.8-4.8,7.5-9.5c0.9-6.4-2.8-10-10.3-10h-11.9l-4.3,29.3h4.9l1.3-8.8h6.9c0.5,0,0.9,0,1.3,0L411.6,232.7L411.6,232.7z
		 M400,219.4l1.7-11.6h6.9c4.5,0,6.8,1.8,6.3,5.7c-0.6,4-3.5,5.9-8,5.9H400L400,219.4z M440.8,203.3c-8.7,0-16.5,6.4-17.7,14.8
		c-1.2,8.4,4.6,14.9,13.3,14.9c8.7,0,16.5-6.5,17.7-14.9C455.4,209.7,449.5,203.3,440.8,203.3L440.8,203.3z M440.2,207.7
		c5.7,0,9.8,4.5,8.9,10.3c-0.9,5.8-6.2,10.4-12,10.4c-5.7,0-9.9-4.6-9-10.4C428.9,212.2,434.4,207.7,440.2,207.7L440.2,207.7z
		 M486.9,232.7l14.1-29.3H496l-10.6,23.8l-3.6-23.8l-4.9,0l-10.6,23.8l-3.6-23.8h-5.3l5.4,29.3h5.1l10.4-22.9l3.6,22.9H486.9
		L486.9,232.7z M523.9,207.8h-9.3l-3.7,24.9h-4.9l3.7-24.9h-9.3l0.7-4.4h23.5L523.9,207.8L523.9,207.8z M549.8,232.7l4.3-29.3h-4.9
		l-1.9,12.7h-15.5l1.9-12.7h-4.9l-4.3,29.3h4.9l1.8-12.1h15.5l-1.8,12.1H549.8L549.8,232.7z M573.3,232.7l4.3-29.3h-4.9l-4.3,29.3
		H573.3L573.3,232.7z M606.4,232.7l4.3-29.3h-4.9l-3.1,21.1l-12.6-21.1h-4.9l-4.3,29.3h4.9l3.1-21l12.5,21H606.4L606.4,232.7z
		 M638.4,223l13.7-19.5h-5l-10.3,14.3l-6.3-14.3h-5l8,19.7l-1.4,9.6h4.9L638.4,223L638.4,223z M667.8,203.3
		c8.7,0,14.6,6.4,13.3,14.8c-1.2,8.4-9,14.9-17.7,14.9c-8.7,0-14.6-6.5-13.3-14.9C651.3,209.6,659,203.3,667.8,203.3L667.8,203.3z
		 M667.2,207.7c-5.8,0-11.2,4.5-12.1,10.3c-0.9,5.8,3.3,10.4,9,10.4c5.7,0,11.1-4.6,12-10.4C676.9,212.2,672.9,207.7,667.2,207.7
		L667.2,207.7z M713.5,203.4h-4.9l-2.5,17.2c-0.7,5-4.1,7.9-8.9,7.9c-4.8,0-7.4-3-6.7-7.9l2.5-17.2H688l-2.5,17.2
		c-1.1,7.7,3,12.3,10.9,12.3c7.9,0,13.4-4.7,14.6-12.3L713.5,203.4L713.5,203.4z M734.8,232.7h5.6l-5.1-9.8c4.1-1.5,6.8-4.8,7.5-9.5
		c0.9-6.4-2.8-10-10.3-10h-11.9l-4.3,29.3h4.9l1.3-8.8h6.9c0.5,0,0.9,0,1.3,0L734.8,232.7L734.8,232.7z M723.1,219.4l1.7-11.6h6.9
		c4.5,0,6.8,1.8,6.3,5.7c-0.6,4-3.5,5.9-8,5.9H723.1L723.1,219.4z M782.7,232.7l4.3-29.3h-4.9l-1.9,12.7h-15.5l1.9-12.7h-4.9
		l-4.3,29.3h4.9l1.8-12.1h15.5l-1.8,12.1H782.7L782.7,232.7z M810.3,226.1h-14.8l-3.8,6.6h-5.1l17.3-29.3h5.1l8.5,29.3h-5.3
		L810.3,226.1L810.3,226.1z M809,221.7l-3.6-13l-7.5,13H809L809,221.7z M846.7,232.7l4.3-29.3h-4.9l-3.1,21.1l-12.6-21.1h-4.9
		l-4.3,29.3h4.9l3.1-21l12.5,21H846.7L846.7,232.7z M858.8,203.4l-4.3,29.3h11.9c8.9,0,16.2-6.2,17.4-14.7c1.3-8.5-4.2-14.7-13-14.7
		H858.8L858.8,203.4z M863,207.8h7c5.8,0,9.6,4.3,8.7,10.3c-0.9,5.9-5.9,10.2-11.6,10.2H860L863,207.8L863,207.8z M900.9,203.2
		c3.8,0,7.4,1.2,9.8,3l-2.7,4.4c-2.9-1.9-6-2.7-8.2-2.7c-2.9,0-4.9,1.1-5.2,3.1c-0.9,6.4,15.4,3,13.8,13.5
		c-0.8,5.2-5.9,8.5-12.3,8.5c-4.6,0-8.7-1.9-11.3-4.6l2.8-4.3c2.6,2.8,6.1,4.3,9.3,4.3c3.4,0,5.7-1.3,6-3.6
		c1-6.5-15.4-2.9-13.8-13.3C889.7,206.3,894.5,203.2,900.9,203.2z"/>
	<polygon class="st0" points="203.3,87.7 120.9,102.9 155.2,123.2 	"/>
	<polygon class="st0" points="209.9,87.7 159.9,128.3 214,167.3 	"/>
	<path class="st0" d="M208.6,173.9L154.2,133c0,0-52.8,34.9-64.5,77.7c-11.6,42.8,4.6,68.5,11.7,80.3c7.2,11.8,9.2,13.1,9.2,13.1
		h41.7c0,0-52-28.7-61.2-59.8C71.7,178,163.7,173.1,208.6,173.9z"/>
	<path class="st0" d="M147.1,128.1L115,106.8c0,0-10.5,14.3-14.9,42.3c-4.4,28-4.1,38.7-4.1,38.7S113.1,147.3,147.1,128.1z"/>
	<polygon class="st0" points="121.6,9.6 48.6,23.1 78.9,41.1 	"/>
	<polygon class="st0" points="127.4,9.6 83.1,45.6 131.1,80.1 	"/>
	<path class="st0" d="M126.3,86L78.1,49.7c0,0-46.8,30.9-57.1,68.8c-10.3,37.9,4,60.7,10.4,71.1c6.3,10.5,8.2,11.6,8.2,11.6h37
		c0,0-46.1-25.4-54.2-53C5,89.7,86.5,85.3,126.3,86z"/>
	<path class="st0" d="M71.8,45.4L43.3,26.5c0,0-9.3,12.7-13.2,37.5c-3.9,24.8-3.6,34.3-3.6,34.3S41.6,62.4,71.8,45.4z"/>
</g>
</svg>
